#!OML:ASF F:\VICON\USERDATA\INSTALL\rory3\rory3.ASF
:FULLY-SPECIFIED
:DEGREES
429
root -7.37554 16.2851 18.8974 384.318 154.953 7.91294
lowerback -7.1156 1.53751 -0.790944
upperback -12.8384 3.67872 -0.226785
thorax -9.69632 2.57046 0.0294017
lowerneck -15.6053 1.26442 -0.0778959
upperneck 31.2279 1.7187 6.54791
head 12.977 2.3735 3.00029
rclavicle -3.51849e-014 -2.06736e-014
rhumerus 13.1312 53.8609 -42.8178
rradius 111.708
rwrist -48.914
rhand 26.0899 3.68313
rfingers 7.12502
rthumb 50.1599 -17.4553
lclavicle -3.51849e-014 -2.06736e-014
lhumerus -189.553 -123.854 223.507
lradius 96.5045
lwrist 39.4853
lhand 24.2782 22.7749
lfingers 7.12502
lthumb 48.4977 44.7521
rfemur 115.265 -176.308 -141.21
rtibia 48.3189
rfoot -12.3586 -10.8001
rtoes -9.48787
lfemur -28.0899 -10.3259 -19.0906
ltibia 42.4222
lfoot -35.434 22.4305
ltoes -43.579
430
root -7.38302 16.2613 19.0197 385.091 151.989 8.11648
lowerback -6.92623 1.44285 -0.906723
upperback -13.1692 3.55903 -0.326256
thorax -10.1885 2.52231 -0.0405142
lowerneck -15.9472 0.327054 -0.637733
upperneck 31.5812 0.355931 6.75196
head 13.2601 1.72716 2.99528
rclavicle -1.92821e-014 1.19271e-014
rhumerus 10.3625 51.5149 -45.6998
rradius 112.026
rwrist -48.514
rhand 27.2294 4.48621
rfingers 7.12502
rthumb 51.1997 -16.083
lclavicle -1.92821e-014 1.19271e-014
lhumerus -191.418 -127.114 223.934
lradius 97.2137
lwrist 40.6352
lhand 24.3025 23.2936
lfingers 7.12502
lthumb 48.52 45.2601
rfemur 114.678 -176.515 -141.326
rtibia 48.5264
rfoot -13.046 -12.9135
rtoes -4.23915
lfemur -28.863 -11.7157 -19.3098
ltibia 42.4615
lfoot -36.2789 24.1847
ltoes -40.1
431
root -7.39137 16.2277 19.1354 386.001 149.209 8.52469
lowerback -7.43378 1.35912 -0.575251
upperback -13.0724 3.38036 -0.46813
thorax -9.74945 2.37436 -0.332512
lowerneck -16.0066 -0.342743 -1.19154
upperneck 31.1911 -0.738463 7.21159
head 13.1679 1.1917 3.07791
rclavicle -1.11916e-013 -3.33958e-014
rhumerus 9.0679 48.5661 -47.8082
rradius 112.081
rwrist -48.1316
rhand 28.3506 4.90717
rfingers 7.12502
rthumb 52.2181 -15.068
lclavicle -1.11916e-013 -3.33958e-014
lhumerus -192.317 -131.039 223.339
lradius 97.9573
lwrist 42.2615
lhand 23.9882 24.0157
lfingers 7.12502
lthumb 48.2306 46.1202
rfemur 114.042 -176.1 -140.774
rtibia 48.6296
rfoot -13.1617 -14.8386
rtoes -2.35469
lfemur -29.769 -12.779 -19.4315
ltibia 42.7474
lfoot -37.5758 25.3675
ltoes -33.8159
432
root -7.3981 16.2008 19.2372 386.668 146.283 8.68013
lowerback -7.29849 1.29006 -0.994922
upperback -13.1973 3.26781 -0.421603
thorax -9.99752 2.35074 -0.0619558
lowerneck -16.0923 -1.25083 -2.00622
upperneck 30.8899 -2.02238 7.43771
head 13.1443 0.513136 3.0895
rclavicle -6.40087e-014 -4.77083e-015
rhumerus 7.49522 45.7022 -49.7071
rradius 112.332
rwrist -47.6696
rhand 28.9034 4.78966
rfingers 7.12502
rthumb 52.7184 -14.8794
lclavicle -6.40087e-014 -4.77083e-015
lhumerus -193.688 -135.13 223.49
lradius 98.4303
lwrist 43.4369
lhand 24.602 24.2078
lfingers 7.12502
lthumb 48.7955 46.0407
rfemur 113.445 -174.984 -140.05
rtibia 48.6607
rfoot -12.5281 -16.1212
rtoes -1.83546
lfemur -30.5614 -13.2549 -20.0126
ltibia 43.177
lfoot -38.9898 25.9571
ltoes -26.671
433
root -7.40082 16.1874 19.3322 387.45 143.292 9.11086
lowerback -7.34629 1.36039 -1.08091
upperback -13.0808 3.27552 -0.629821
thorax -9.82533 2.32001 -0.22231
lowerneck -17.0647 -2.18969 -2.13125
upperneck 30.8903 -3.53764 7.51166
head 13.4607 -0.185913 2.89824
rclavicle 6.99722e-014 4.45278e-014
rhumerus 5.98292 42.3088 -51.5227
rradius 112.632
rwrist -46.8706
rhand 28.9112 4.77142
rfingers 7.12502
rthumb 52.7254 -14.8933
lclavicle 6.99722e-014 4.45278e-014
lhumerus -194.189 -139.405 222.629
lradius 98.7309
lwrist 43.9549
lhand 25.0008 24.0829
lfingers 7.12502
lthumb 49.1619 45.7349
rfemur 113.038 -174.009 -139.259
rtibia 48.5744
rfoot -11.9102 -17.1249
rtoes 1.33288
lfemur -31.3727 -13.9387 -20.3379
ltibia 43.7685
lfoot -40.3556 27.0904
ltoes -19.9208
434
root -7.40226 16.1743 19.4253 388.273 140.201 9.39595
lowerback -7.41529 1.51961 -1.32445
upperback -13.4138 3.51531 -0.699325
thorax -10.1869 2.471 -0.181552
lowerneck -16.5698 -3.18763 -3.07923
upperneck 30.7282 -4.86681 7.8643
head 13.4106 -0.858331 2.9772
rclavicle 4.87022e-014 -6.36111e-015
rhumerus 3.24066 39.4024 -53.2824
rradius 113.053
rwrist -45.6164
rhand 28.4494 4.344
rfingers 7.12502
rthumb 52.3076 -15.5771
lclavicle 4.87022e-014 -6.36111e-015
lhumerus -195.652 -142.988 223.002
lradius 99.1186
lwrist 43.8676
lhand 25.0627 23.9368
lfingers 7.12502
lthumb 49.2187 45.5603
rfemur 112.577 -173.749 -139.245
rtibia 48.5588
rfoot -11.5147 -18.7484
rtoes 5.89364
lfemur -32.3117 -14.7727 -20.7512
ltibia 44.3397
lfoot -41.768 28.2697
ltoes -12.6945
435
root -7.4009 16.1548 19.5163 389.146 137.188 9.69101
lowerback -7.63332 1.61196 -1.47812
upperback -13.6977 3.65322 -0.858283
thorax -10.3937 2.55561 -0.273237
lowerneck -15.2661 -4.0597 -3.98523
upperneck 29.9813 -6.09491 8.50084
head 12.9646 -1.48038 3.16162
rclavicle -5.56597e-015 -2.54444e-014
rhumerus 1.20662 36.0618 -55.6214
rradius 112.711
rwrist -44.0933
rhand 28.5322 4.00751
rfingers 7.12502
rthumb 52.3826 -15.8681
lclavicle -5.56597e-015 -2.54444e-014
lhumerus -196.92 -146.701 222.866
lradius 99.5315
lwrist 43.7734
lhand 25.9961 23.7838
lfingers 7.12502
lthumb 50.0741 44.9676
rfemur 112.099 -173.909 -139.685
rtibia 48.6231
rfoot -11.4109 -20.7589
rtoes 10.5798
lfemur -33.3374 -15.1353 -21.112
ltibia 44.8791
lfoot -43.4125 28.0281
ltoes -4.37874
436
root -7.39489 16.1369 19.5917 389.676 134.087 9.55982
lowerback -8.00253 1.74247 -1.88038
upperback -13.89 3.8255 -1.19332
thorax -10.4098 2.6667 -0.400962
lowerneck -14.432 -4.99356 -4.89284
upperneck 29.607 -7.42962 9.13021
head 12.8147 -2.13232 3.34684
rclavicle 1.27222e-013 -3.18055e-015
rhumerus -0.703663 32.5225 -57.7445
rradius 112.142
rwrist -42.7108
rhand 28.8108 4.97079
rfingers 7.12502
rthumb 52.6347 -14.7502
lclavicle 1.27222e-013 -3.18055e-015
lhumerus -197.848 -150.218 222.432
lradius 99.8971
lwrist 43.6771
lhand 26.3048 23.7683
lfingers 7.12502
lthumb 50.3563 44.8019
rfemur 111.482 -173.616 -140.352
rtibia 48.8348
rfoot -11.5173 -22.1466
rtoes 12.3788
lfemur -34.1483 -15.3593 -21.9032
ltibia 45.3074
lfoot -44.55 28.1176
ltoes 1.11377
437
root -7.38239 16.1225 19.6669 390.19 131.172 9.3377
lowerback -8.4131 1.73504 -2.43113
upperback -14.0797 3.83589 -1.3327
thorax -10.4235 2.72767 -0.233554
lowerneck -14.1571 -5.85785 -5.84069
upperneck 29.6414 -8.5795 9.40674
head 12.9435 -2.7343 3.43739
rclavicle 3.598e-014 4.77083e-015
rhumerus -2.53559 29.2685 -58.8928
rradius 112.303
rwrist -41.2739
rhand 27.9013 4.62251
rfingers 7.12502
rthumb 51.8106 -15.595
lclavicle 3.598e-014 4.77083e-015
lhumerus -199.136 -153.931 222.303
lradius 100.522
lwrist 43.086
lhand 24.6714 24.359
lfingers 7.12502
lthumb 48.8593 46.1607
rfemur 110.701 -173.093 -140.944
rtibia 49.0713
rfoot -11.8427 -23.2516
rtoes 13.7614
lfemur -34.9595 -15.6235 -22.6007
ltibia 45.6282
lfoot -45.0769 28.4292
ltoes 4.03544
438
root -7.36891 16.1048 19.7596 390.737 128.399 9.25811
lowerback -8.67905 1.6488 -2.98993
upperback -14.1488 3.7114 -1.46741
thorax -10.3779 2.70924 -0.0555161
lowerneck -14.0517 -6.63674 -6.31369
upperneck 29.4679 -9.71061 9.58196
head 13.004 -3.29618 3.39212
rclavicle 3.47873e-014 4.92986e-014
rhumerus -3.91054 25.9415 -60.1104
rradius 112.376
rwrist -40.2852
rhand 27.1465 3.95595
rfingers 7.12502
rthumb 51.1242 -16.6559
lclavicle 3.47873e-014 4.92986e-014
lhumerus -200.255 -157.947 221.76
lradius 101.147
lwrist 41.824
lhand 22.8312 24.455
lfingers 7.12502
lthumb 47.1628 47.0491
rfemur 109.991 -172.919 -141.619
rtibia 49.2237
rfoot -11.7682 -24.7766
rtoes 14.6463
lfemur -35.7885 -15.5713 -23.032
ltibia 45.8416
lfoot -45.3589 27.9101
ltoes 6.49388
